<svg xmlns="http://www.w3.org/2000/svg" viewBox="0 0 400 60"><defs><style>.cls-1{fill:#fff;fill-rule:evenodd;}</style></defs><title>siemens-logo</title><g id="Layer_1" data-name="Layer 1"><path class="cls-1" d="M1.23,57.89V46.47a64.2,64.2,0,0,0,18.11,3.07q10.86,0,10.86-5.47a4.41,4.41,0,0,0-1.58-3.43q-1.62-1.47-8.3-4.09-12-4.69-15.61-8A14.36,14.36,0,0,1,0,17.53Q0,8.94,6.86,4.45T24.52,0A103.88,103.88,0,0,1,41.89,2.11v11a44.47,44.47,0,0,0-15.7-3.21Q16,9.88,16,15.23A3.77,3.77,0,0,0,18,18.5q1.72,1,9.43,4.33Q38.57,27.53,42.25,31a14,14,0,0,1,4.38,10.67q0,9.39-8.58,14.33-6.93,4-18,4A86.12,86.12,0,0,1,1.23,57.89Zm55,.94V1H73.14V58.83Zm32.49,0V1h43.47V11.46H105V24.52h23.63v9.54H105V47.78h27.84v11Zm55.24,0V1h22L181.17,38,196.82,1h20.87V58.83H201.62V17.89L183.83,59.41h-10.5L155.87,17.89V58.83Zm89.31,0V1H276.7V11.46H249.57V24.52h23.62v9.54H249.57V47.78h27.84v11Zm55.32,0V1H308.2L329,39.71V1H341V58.83H321.89L300.5,19.6V58.83ZM353,57.89V46.47a63.64,63.64,0,0,0,18.11,3.07q10.88,0,10.87-5.47a4.47,4.47,0,0,0-1.54-3.43q-1.62-1.47-8.34-4.09c-8-3.1-13.18-5.77-15.62-8a14.36,14.36,0,0,1-4.71-11.07,14.64,14.64,0,0,1,6.86-13Q365.42,0,376.31,0a89.14,89.14,0,0,1,15.86,1.86l1.5.25v11a44.55,44.55,0,0,0-15.74-3.21q-10.17,0-10.16,5.35a3.75,3.75,0,0,0,2.05,3.27q1.64,1,9.47,4.33,11,4.7,14.75,8.16a14,14,0,0,1,4.37,10.67q0,9.39-8.53,14.33-7,4-18,4A86.21,86.21,0,0,1,353,57.89Z"/></g></svg>